HIERARCHY
ROOT Hips
{
 OFFSET 0.000000 0.000000 0.000000
 CHANNELS 6 Xposition Yposition Zposition Yrotation Xrotation Zrotation
 JOINT Chest
 {
  OFFSET 0.000000 10.354800 0.006500
  CHANNELS 3 Yrotation Xrotation Zrotation
  JOINT Chest2
  {
   OFFSET 0.000000 10.435800 -0.013200
   CHANNELS 3 Yrotation Xrotation Zrotation
   JOINT Chest3
   {
    OFFSET 0.000000 10.393700 0.000000
    CHANNELS 3 Yrotation Xrotation Zrotation
    JOINT Chest4
    {
     OFFSET 0.000000 10.383100 0.000000
     CHANNELS 3 Yrotation Xrotation Zrotation
     JOINT Neck
     {
      OFFSET 0.000000 15.694000 0.000000
      CHANNELS 3 Yrotation Xrotation Zrotation
      JOINT Head
      {
       OFFSET 0.000000 9.711000 -0.028000
       CHANNELS 3 Yrotation Xrotation Zrotation
       End Site
       {
        OFFSET 0.000000 18.578700 -0.014800
       }
      }
     }
     JOINT RightCollar
     {
      OFFSET -3.157200 10.367500 0.000000
      CHANNELS 3 Yrotation Xrotation Zrotation
      JOINT RightShoulder
      {
       OFFSET -14.482500 0.000000 0.000000
       CHANNELS 3 Yrotation Xrotation Zrotation
       JOINT RightElbow
       {
        OFFSET 0.000000 -31.707800 0.000000
        CHANNELS 3 Yrotation Xrotation Zrotation
        JOINT RightWrist
        {
         OFFSET 0.000000 -25.659300 0.000000
         CHANNELS 3 Yrotation Xrotation Zrotation
         End Site
         {
          OFFSET 0.000000 -18.994300 0.000000
         }
        }
       }
      }
     }
     JOINT LeftCollar
     {
      OFFSET 3.157200 10.367500 0.000000
      CHANNELS 3 Yrotation Xrotation Zrotation
      JOINT LeftShoulder
      {
       OFFSET 14.482500 0.000000 0.000000
       CHANNELS 3 Yrotation Xrotation Zrotation
       JOINT LeftElbow
       {
        OFFSET 0.000000 -31.707800 0.000000
        CHANNELS 3 Yrotation Xrotation Zrotation
        JOINT LeftWrist
        {
         OFFSET 0.000000 -25.659300 0.000000
         CHANNELS 3 Yrotation Xrotation Zrotation
         End Site
         {
          OFFSET 0.000000 -18.994300 0.000000
         }
        }
       }
      }
     }
    }
   }
  }
 }
 JOINT RightHip
 {
  OFFSET -8.365600 -0.032100 -0.003200
  CHANNELS 3 Yrotation Xrotation Zrotation
  JOINT RightKnee
  {
   OFFSET 0.000000 -43.980000 0.003100
   CHANNELS 3 Yrotation Xrotation Zrotation
   JOINT RightAnkle
   {
    OFFSET 0.000000 -42.882800 0.005200
    CHANNELS 3 Yrotation Xrotation Zrotation
    JOINT RightToe
    {
     OFFSET 0.000000 -4.915500 10.826300
     CHANNELS 3 Yrotation Xrotation Zrotation
     End Site
     {
      OFFSET 0.000000 -1.517500 6.175900
     }
    }
   }
  }
 }
 JOINT LeftHip
 {
  OFFSET 8.365600 -0.032100 -0.003200
  CHANNELS 3 Yrotation Xrotation Zrotation
  JOINT LeftKnee
  {
   OFFSET 0.000000 -43.980000 0.003100
   CHANNELS 3 Yrotation Xrotation Zrotation
   JOINT LeftAnkle
   {
    OFFSET 0.000000 -42.882800 0.005200
    CHANNELS 3 Yrotation Xrotation Zrotation
    JOINT LeftToe
    {
     OFFSET 0.000000 -4.915500 10.826300
     CHANNELS 3 Yrotation Xrotation Zrotation
     End Site
     {
      OFFSET 0.000000 -1.517500 6.175900
     }
    }
   }
  }
 }
}
MOTION
Frames: 13
Frame Time: 0.008333
-4.834857 126.664140 21.439231 173.386546 -22.536965 -2.612342 -4.265500 11.980897 1.941708 -0.342279 0.925293 0.182366 -0.581246 1.576520 0.307274 -3.848240 10.844490 1.799609 -6.750564 13.076742 -3.535686 -6.499443 -11.856247 -2.254358 11.299036 -0.591082 -9.289653 6.675772 -43.529834 -36.122758 -96.696414 -39.741123 114.336876 -27.025157 -0.310830 5.764200 0.467899 5.017444 -0.414374 0.712155 -7.446044 2.521072 103.409204 -53.299313 -160.627982 1.334565 3.195977 -34.727626 8.369708 -54.344726 -3.803963 -160.560297 74.220948 -153.780948 0.547329 -26.421679 -0.994798 -0.001407 0.014059 -0.000639 -10.856612 -51.748678 13.971987 152.535336 75.035403 145.961453 -0.327176 -26.962403 -1.099410 -0.000505 -0.010447 -0.000229
-4.830361 126.660411 21.437091 173.284736 -22.466262 -2.560275 -4.264726 11.942826 1.852879 -0.342635 0.921749 0.175999 -0.581913 1.570605 0.296489 -3.868258 10.826830 1.728852 -7.227318 12.843871 -3.550442 -7.044718 -12.090382 -2.167873 11.469726 -0.816454 -9.537298 8.238246 -44.280032 -37.040337 -96.373717 -39.191601 112.125494 -27.961530 -1.352281 3.843067 0.461593 4.966246 -0.423528 0.767792 -7.314145 2.493648 103.268881 -53.263154 -160.584035 1.336845 3.182686 -34.712263 8.445145 -54.470779 -3.885282 -160.910234 74.263676 -154.111245 0.567433 -26.318242 -1.015546 -0.015021 0.003789 -0.006820 -10.756989 -51.826381 13.939168 152.610463 75.038571 146.066067 -0.279141 -26.973738 -1.117374 0.003418 -0.012199 0.001552
-4.819528 126.657915 21.435223 173.198165 -22.403912 -2.544444 -4.259813 11.912387 1.787891 -0.341845 0.918169 0.168996 -0.580745 1.564713 0.284648 -3.876672 10.811468 1.651638 -7.683202 12.666714 -3.548852 -7.573443 -12.266268 -2.067053 11.616327 -1.086895 -9.805909 9.646130 -45.089452 -37.902358 -95.861952 -38.392330 109.927195 -29.245351 -2.937879 1.321794 0.424658 4.905792 -0.406183 0.771079 -7.183220 2.457853 103.111525 -53.231073 -160.503268 1.332860 3.165022 -34.700349 8.490268 -54.571673 -3.913165 -161.380474 74.371241 -154.496071 0.503663 -26.190579 -1.068257 0.002462 0.004630 0.001118 -10.695603 -51.891900 13.946335 152.605958 75.036973 146.086365 -0.252038 -26.980333 -1.117357 -0.003499 -0.010548 -0.001588
-4.809482 126.658094 21.428665 173.153352 -22.374964 -2.529838 -4.279946 11.907247 1.700014 -0.340123 0.914744 0.161072 -0.578023 1.559186 0.271253 -3.875442 10.799401 1.564229 -8.109675 12.536844 -3.518467 -8.077775 -12.392664 -1.940082 11.740533 -1.404855 -10.077841 10.846259 -45.919973 -38.711495 -95.131217 -37.216698 107.807256 -30.728241 -4.970676 -1.429761 0.369391 4.842448 -0.362312 0.710475 -7.074492 2.419169 102.937643 -53.205859 -160.380063 1.327155 3.147008 -34.685068 8.512337 -54.631168 -3.958372 -161.747846 74.440477 -154.802036 0.482441 -26.078944 -1.087435 0.009253 0.002340 0.004201 -10.642175 -51.923384 13.916579 152.586965 75.036703 146.092340 -0.227190 -26.987368 -1.118040 -0.008381 -0.008863 -0.003805
-4.799768 126.659232 21.421906 173.113537 -22.356625 -2.505501 -4.285113 11.901989 1.593299 -0.324654 0.908620 0.205228 -0.589218 1.556637 0.202629 -3.869760 10.790639 1.462161 -8.503561 12.430832 -3.452904 -8.555326 -12.494546 -1.780583 11.850912 -1.770908 -10.334148 11.923333 -46.710809 -39.476842 -94.316006 -35.789881 105.764154 -32.089600 -7.304611 -4.048894 0.311646 4.779231 -0.288825 0.585737 -7.005339 2.383659 102.756760 -53.189029 -160.217357 1.326720 3.128380 -34.662109 8.550913 -54.674130 -4.029366 -162.056170 74.488328 -155.060690 0.487376 -25.978991 -1.082074 0.007522 0.001683 0.003415 -10.575391 -51.943582 13.867371 152.571497 75.038577 146.101583 -0.213869 -26.994162 -1.110384 -0.011561 -0.007027 -0.005248
-4.790984 126.660109 21.417737 173.061181 -22.333424 -2.461614 -4.260736 11.879966 1.466532 -0.331454 0.908542 0.169887 -0.575528 1.549532 0.209526 -3.863286 10.784065 1.343264 -8.861867 12.324858 -3.352221 -9.002630 -12.597390 -1.589170 11.963896 -2.170405 -10.571865 13.010028 -47.403888 -40.210921 -93.634967 -34.421699 103.744065 -32.926554 -9.639687 -6.247935 0.268017 4.718098 -0.191184 0.407817 -6.983184 2.356811 102.574614 -53.182562 -160.025478 1.330453 3.105772 -34.632962 8.628724 -54.715292 -4.136197 -162.365321 74.532796 -155.315410 0.496516 -25.913689 -1.115652 0.002222 0.000179 0.001009 -10.482533 -51.968799 13.802409 152.563341 75.045329 146.114629 -0.191365 -26.999339 -1.118367 -0.012052 -0.005920 -0.005471
-4.787368 126.661779 21.412065 173.022000 -22.324405 -2.380997 -4.243050 11.864436 1.347320 -0.330863 0.900766 0.077127 -0.566785 1.544585 0.217946 -3.858216 10.776302 1.209253 -9.181454 12.205865 -3.222154 -9.414698 -12.715200 -1.372685 12.090618 -2.579222 -10.805313 14.155705 -47.985720 -40.917272 -93.251424 -33.414743 101.725691 -33.084212 -11.583808 -7.866200 0.252076 4.660809 -0.082953 0.192390 -7.006199 2.343439 102.398786 -53.184124 -159.821997 1.333218 3.083082 -34.602838 8.751480 -54.736768 -4.316312 -162.711705 74.568522 -155.611176 0.497009 -25.814257 -1.070471 0.003215 0.006419 0.001460 -10.353202 -51.984731 13.678623 152.543574 75.053662 146.106579 -0.199859 -26.995853 -1.093150 -0.010486 -0.009259 -0.004760
-4.780684 126.664151 21.406268 173.028922 -22.324696 -2.322277 -4.247030 11.847425 1.156103 -0.327926 0.898625 0.090966 -0.562944 1.538654 0.196809 -3.855206 10.764452 1.066448 -9.464350 12.071743 -3.070094 -9.791840 -12.850412 -1.138730 12.224685 -2.978654 -11.051198 15.240062 -48.526234 -41.538248 -93.122378 -32.927378 99.717961 -32.859133 -12.902923 -8.778856 0.272333 4.612338 0.021843 -0.048867 -7.075993 2.346783 102.253205 -53.189716 -159.631349 1.333598 3.067721 -34.572987 8.825171 -54.743883 -4.476626 -162.982188 74.587031 -155.855675 0.511229 -25.721613 -0.991737 -0.006017 0.009221 -0.002732 -10.278093 -51.991415 13.573931 152.509693 75.056869 146.076980 -0.204017 -26.988638 -1.089372 -0.010684 -0.013311 -0.004850
-4.773942 126.666003 21.401722 173.048950 -22.321701 -2.258098 -4.242170 11.822630 0.960025 -0.328115 0.897760 0.104696 -0.558692 1.531478 0.175373 -3.851048 10.747729 0.921251 -9.717673 11.925712 -2.901530 -10.140581 -12.999548 -0.891877 12.342781 -3.352570 -11.312671 16.097672 -49.100050 -42.022823 -93.053188 -32.958236 97.731391 -32.640291 -13.661142 -8.962798 0.323783 4.577872 0.110733 -0.293142 -7.193078 2.368620 102.164125 -53.200323 -159.483338 1.331706 3.062355 -34.544219 8.910394 -54.748738 -4.655758 -163.247028 74.603605 -156.090785 0.520836 -25.646669 -0.934219 -0.014453 0.010168 -0.006563 -10.200504 -51.994547 13.454080 152.451453 75.066558 146.021353 -0.210244 -26.985491 -1.085696 -0.012573 -0.012515 -0.005707
-4.765267 126.667270 21.397979 173.075939 -22.316097 -2.197544 -4.224976 11.799897 0.801817 -0.324771 0.892441 0.092211 -0.553219 1.522628 0.154218 -3.840222 10.725360 0.778229 -9.952005 11.772676 -2.723899 -10.471377 -13.156873 -0.638085 12.422864 -3.678217 -11.583248 16.730154 -49.662607 -42.437570 -92.935515 -33.419844 95.783703 -32.477808 -14.076413 -8.613321 0.388676 4.558966 0.171341 -0.510291 -7.348569 2.409702 102.146917 -53.214212 -159.399870 1.324191 3.065720 -34.526969 8.998379 -54.752686 -4.837119 -163.543039 74.621881 -156.336975 0.517061 -25.574976 -0.891711 -0.015197 0.011372 -0.006901 -10.178444 -51.978961 13.390607 152.479859 75.095883 146.017045 -0.212625 -26.984946 -1.072971 -0.008790 -0.003113 -0.003991
-4.758020 126.666749 21.396342 173.118650 -22.293649 -2.128267 -4.200221 11.762021 0.648097 -0.320311 0.885932 0.080134 -0.545835 1.511902 0.133748 -3.818021 10.697268 0.640554 -10.178625 11.617750 -2.545237 -10.795623 -13.316493 -0.383547 12.457064 -3.935045 -11.857077 17.306139 -50.078413 -42.930434 -92.848650 -34.136636 93.949144 -32.328034 -14.382875 -8.004042 0.449798 4.556255 0.202962 -0.685026 -7.531323 2.461698 102.209174 -53.225930 -159.386563 1.305645 3.073647 -34.535862 9.099779 -54.767223 -5.041203 -163.833262 74.632316 -156.572801 0.504280 -25.545271 -0.895641 -0.014789 0.009345 -0.006715 -10.145342 -51.997280 13.295499 152.429661 75.112722 145.950856 -0.225356 -26.969353 -1.073152 -0.009210 -0.001964 -0.004181
-4.752178 126.664621 21.395667 173.177575 -22.258362 -2.052170 -4.166104 11.711551 0.502812 -0.314707 0.878258 0.068670 -0.536592 1.499389 0.114247 -3.784044 10.663756 0.510192 -10.403133 11.465559 -2.372476 -11.118083 -13.473351 -0.134652 12.453965 -4.111626 -12.126367 17.934484 -50.263998 -43.590726 -92.930451 -34.844229 92.404112 -32.280763 -14.703972 -7.375711 0.500478 4.573678 0.214718 -0.811059 -7.729341 2.507620 102.352649 -53.236287 -159.445120 1.272175 3.082765 -34.578275 9.198414 -54.790169 -5.244673 -164.044892 74.636293 -156.743700 0.484506 -25.521283 -0.887303 -0.011141 0.010503 -0.005059 -10.095014 -52.039982 13.163615 152.320752 75.127107 145.837744 -0.234729 -26.937848 -1.072249 -0.017200 -0.004269 -0.007809
-4.740845 126.663510 21.390440 173.231206 -22.247044 -1.998165 -4.100074 11.685008 0.397393 -0.308263 0.869060 0.058055 -0.525916 1.484294 0.096230 -3.741747 10.621500 0.390625 -10.622769 11.319000 -2.214855 -11.432729 -13.624411 0.097280 12.436102 -4.202071 -12.379702 18.549811 -50.278202 -44.371746 -93.193137 -35.337260 91.304380 -32.396611 -14.996159 -6.875999 0.542044 4.619800 0.209056 -0.880300 -7.931939 2.536766 102.567124 -53.249977 -159.569597 1.227190 3.090076 -34.658688 9.261793 -54.794331 -5.398176 -164.500115 74.648206 -157.135652 0.412539 -25.493544 -0.859320 -0.005127 0.022016 -0.002329 -10.123620 -52.034769 13.134704 152.337514 75.158176 145.805632 -0.220881 -26.915308 -1.068923 -0.042606 -0.005402 -0.019343
